# xmcd CD database file
#
# Track frame offsets:
#	150
#	18091
#	49678
#	65284
#	89250
#	112853
#	129447
#	152967
#	174368
#	189440
#	212341
#	228974
#
# Disc length: 3292 seconds
#
# Revision: 0
# Processed by: cddbd v1.5.2PL0 Copyright (c) Steve Scherf et al.
# Submitted via: CDex 1.70beta2
#
DISCID=890cda0c
DTITLE=Louise Laurier - Out of the blues - Sortie des blues
DYEAR=2006
DGENRE=Blues
TTITLE0=You can't keep a happy girl down
TTITLE1=Mon ami inoui
TTITLE2=Quand on a dansé
TTITLE3=Love don't leave me blue
TTITLE4=L'abandon
TTITLE5=I never felt so blue
TTITLE6=I want somebody
TTITLE7=Je l'savais
TTITLE8=The gentleman's a bum
TTITLE9=Don't scatter your love
TTITLE10=Tu m'as invitée
TTITLE11=Dream it want it do it
EXTD=YEAR: 2006
EXTT0=
EXTT1=
EXTT2=
EXTT3=
EXTT4=
EXTT5=
EXTT6=
EXTT7=
EXTT8=
EXTT9=
EXTT10=
EXTT11=
PLAYORDER=
